<svg width="200" height="200" viewBox="0 0 200 200" fill="none" xmlns="http://www.w3.org/2000/svg">
<path d="M11 35.5926H179.415C184.709 35.5926 189 39.8873 189 45.1852V164.407C189 169.705 184.709 174 179.415 174H20.5846C15.2912 174 11 169.705 11 164.407V35.5926Z" fill="#E4C106"/>
<path d="M82.2 35.5926L75.4489 26H13.7385C12.2261 26 11 27.2271 11 28.7407V45.1852H75.109L82.2 35.5926Z" fill="#C6A600"/>
<path d="M42.4923 145.222C42.4923 133.113 52.3007 123.296 64.4 123.296H136.969C149.069 123.296 158.877 133.113 158.877 145.222V174H42.4923V145.222Z" fill="#00A3FF"/>
<path d="M64.4 148.648C64.4 145.999 66.5456 143.852 69.1923 143.852H132.177C134.824 143.852 136.969 145.999 136.969 148.648C136.969 151.297 134.824 153.444 132.177 153.444H69.1923C66.5456 153.444 64.4 151.297 64.4 148.648Z" fill="#007ABF"/>
</svg>
